<?xml version="1.0" encoding="UTF-8"?>
<svg xmlns="http://www.w3.org/2000/svg" version="1.1" width="512px" height="512px" style="shape-rendering:geometricPrecision; text-rendering:geometricPrecision; image-rendering:optimizeQuality; fill-rule:evenodd; clip-rule:evenodd;" xmlns:xlink="http://www.w3.org/1999/xlink">
<defs>
    <linearGradient id="Gradient" x1="13%" y1="42%" x2="40%" y2="100%">
        <stop stop-color="#3b0394" offset="0%" />
        <stop stop-color="#3b0394" offset="23%" />
        <stop stop-color="#992467" offset="35%" />
        <stop stop-color="#ffb70d" offset="55%" />
        <stop stop-color="#ffb70d" offset="100%" />
    </linearGradient>
</defs>
<g>
    <path 
        style="stroke: #fff; stroke-width: 0.3%;" 
        fill="url(#Gradient)" 
        d="M 488.5,10.5 C 492.071,10.4077 493.238,12.0743 492,15.5C 482.196,24.3029 472.696,33.4695 463.5,43C 467.457,43.5505 468.624,45.3838 467,48.5C 459.617,54.878 452.45,61.7114 445.5,69C 446.833,69.6667 448.167,69.6667 449.5,69C 451.833,66.6667 454.167,64.3333 456.5,62C 458.055,60.3542 459.721,60.0209 461.5,61C 470.797,53.3713 479.797,45.3713 488.5,37C 491.114,34.6621 493.114,34.9954 494.5,38C 490.308,45.2006 484.975,51.5339 478.5,57C 479.167,57.6667 479.833,58.3333 480.5,59C 478.667,61.5 476.5,63.6667 474,65.5C 473.282,64.5494 472.449,64.3828 471.5,65C 475.114,67.1413 475.114,69.4746 471.5,72C 474.2,72.9492 475.033,74.7825 474,77.5C 470.253,81.9177 465.92,85.5844 461,88.5C 460.667,88.1667 460.333,87.8333 460,87.5C 454.333,94.5 448.667,101.5 443,108.5C 421.47,129.698 399.636,150.532 377.5,171C 331.48,208.358 285.48,245.691 239.5,283C 263.774,328.718 287.607,374.551 311,420.5C 311.756,422.809 311.256,424.809 309.5,426.5C 312.613,430.392 314.947,434.726 316.5,439.5C 316.392,440.442 316.059,441.275 315.5,442C 314.062,442.219 312.729,442.719 311.5,443.5C 314.088,447.674 316.421,452.007 318.5,456.5C 317.855,457.646 317.022,458.646 316,459.5C 311.592,454.927 307.759,449.927 304.5,444.5C 303.833,443.167 303.167,443.167 302.5,444.5C 304.128,447.883 305.461,451.383 306.5,455C 306.05,456.285 305.383,457.452 304.5,458.5C 308.375,465.084 312.375,471.584 316.5,478C 315.328,480.055 313.661,480.722 311.5,480C 310,477.833 308.5,475.667 307,473.5C 306.333,474.167 305.667,474.833 305,475.5C 300.333,469.5 295.667,463.5 291,457.5C 260.322,409.471 229.656,361.471 199,313.5C 171.296,334.948 141.796,353.781 110.5,370C 101.843,373.941 92.8431,376.775 83.5,378.5C 76.6961,378.6 73.0294,375.267 72.5,368.5C 76.2274,354.954 82.7274,342.954 92,332.5C 114.288,307.21 138.788,284.376 165.5,264C 166.899,262.938 167.899,261.605 168.5,260C 153.926,234.019 141.093,207.185 130,179.5C 127.823,172.292 126.823,164.959 127,157.5C 130.057,152.435 133.89,147.935 138.5,144C 140.631,144.398 142.631,145.398 144.5,147C 169.751,172.035 191.251,199.868 209,230.5C 247.65,199.514 287.15,169.681 327.5,141C 355.466,116.695 384.3,93.5278 414,71.5C 414.837,73.0074 416.004,73.5074 417.5,73C 425.667,65.5 433.833,58 442,50.5C 445.762,43.7421 450.595,37.9087 456.5,33C 457.549,32.5078 458.549,32.6744 459.5,33.5C 461.131,31.7026 463.131,30.5359 465.5,30C 472.771,22.8847 480.438,16.3847 488.5,10.5 Z M 399.5,107.5 C 401.094,106.017 402.76,104.517 404.5,103C 405.167,102.333 405.833,102.333 406.5,103C 404.772,105.582 402.439,107.082 399.5,107.5 Z"
    />
</g>
</svg>
